#!OML:ASF F:\VICON\USERDATA\INSTALL\rory3\rory3.ASF
:FULLY-SPECIFIED
:DEGREES
194
root 0.8533301518386365 17.77731643267502 39.86473160772236 1.6127602585991228 0.16783763135038043 -0.1363308694701335
lfemur -16.05475203315026 2.2796867839176707 -21.320666723515174
ltibia 42.41127741996118
lfoot 3.0713318049034006 -9.932850760377818
ltoes -6.16069833421244
rfemur -19.19830957215062 4.298493414909209 26.45333252324168
rtibia 53.22007918111389
rfoot -5.172509865526629 -6.657284096239379
rtoes -0.5859961010526833
lowerback 12.810318287925883 0.5811909071330206 1.0337530659452316
upperback -0.7320244206890755 2.145780691957109 1.1981528351376591
thorax -8.324723937652513 1.088090080451823 0.24255607494378795
lowerneck -19.745116632686376 -3.877481431495681 -1.8675166815442812
upperneck 10.07251425554275 -5.079176026501023 3.236312448977283
head 6.442154549653654 -2.3355115633942836 0.7779702252264387
lclavicle 4.287488207731266e-15 5.75886165290891e-17
lhumerus -49.844267626336936 -12.244046399220657 96.50654187677509
lradius 110.13293320226477
lwrist 28.806257881573156
lhand -29.614414374282624 2.946165496975831
lfingers 7.125019999999998
lthumb -2.864203226701146 32.88930931450776
rclavicle 4.28752700038245e-15 5.761646213958064e-17
rhumerus -41.75641339054429 15.223024471369147 -98.98205374704467
rradius 105.68447652249337
rwrist -9.737379556783761
rhand -20.348071246796056 36.441519244933964
rfingers 7.125019999999998
rthumb 5.913003755805269 6.288593767545496
195
root 0.8185087019748017 17.723799541943322 37.955162455730516 1.5743147343489792 -0.10868925152661946 -0.24415723660943978
lfemur -16.429262886679435 1.977180372768737 -21.757804891703973
ltibia 43.88652405066921
lfoot 3.7194314376668665 -10.100118651793558
ltoes -5.803016465488586
rfemur -18.658101279305214 4.437933360532348 26.962154017651766
rtibia 52.29827477965902
rfoot -5.077330275716704 -6.372718146818343
rtoes -0.42219025322005477
lowerback 12.87082893913209 0.6380156895675083 1.0740331464057347
upperback -0.7661307752486126 1.9094478260652976 1.1371860591844432
thorax -8.30590954900442 1.0893189872556606 0.4688737532055742
lowerneck -19.701857036022453 -3.830932853431901 -1.878359083146953
upperneck 10.090894387778606 -5.050896346319367 3.2247765143744553
head 6.406348538433819 -2.3620914694351653 0.7718273450856531
lclavicle 4.287488207731266e-15 5.75886165290891e-17
lhumerus -48.63698198528541 -12.014566961809509 96.69512481251148
lradius 110.10784146689328
lwrist 28.78179200682387
lhand -29.618346414645732 2.9991889240419614
lfingers 7.125019999999998
lthumb -2.764116818256754 32.8915040022789
rclavicle 4.28752700038245e-15 5.761646213958064e-17
rhumerus -41.89380453505268 15.184514025821883 -99.05886941661966
rradius 105.70194053961133
rwrist -9.745493315142971
rhand -20.360474787732493 36.42420008672036
rfingers 7.125019999999998
rthumb 5.958229170391251 6.288706333764875
196
root 0.8676231566831574 17.8066352658951 41.62811918993523 1.841848510283939 0.5625528818562586 0.1327931089863077
lfemur -13.897855573547414 2.202954491263832 -21.520213588443358
ltibia 45.27244012728841
lfoot 3.576064612279567 -10.318381377398456
ltoes -5.34813755297559
rfemur -19.200842241353804 4.300535578529005 26.563497518284937
rtibia 51.31757980041095
rfoot -5.485585615388301 -6.019043819481014
rtoes -0.4026005228083722
lowerback 12.847280736987948 0.6357868707194128 0.9845857834234215
upperback -0.7979415955735761 1.66644609869867 1.091535830679229
thorax -8.34395917590589 1.0196117849974007 0.5032231443807147
lowerneck -19.662938094860912 -3.819494458271099 -1.8889816299673419
upperneck 10.040152083095913 -5.073592694536449 3.1815658098505013
head 6.333161766186159 -2.4008061633169357 0.7565922010837605
lclavicle 4.287488207731266e-15 5.75886165290891e-17
lhumerus -49.64823110716531 -12.565361873724138 96.43847155065964
lradius 109.92132745607465
lwrist 28.598198949739572
lhand -29.69214907403027 2.9633596966993765
lfingers 7.125019999999998
lthumb -2.7242890688828383 32.88620255210345
rclavicle 4.28752700038245e-15 5.761646213958064e-17
rhumerus -41.999675144306146 15.140808883890665 -99.12422236986191
rradius 105.66132107204622
rwrist -9.747240335953155
rhand -20.3564498822025 36.44114672643009
rfingers 7.125019999999998
rthumb 5.977127933156686 6.3277863876402
197
root 0.8228369430499174 17.750692831999935 39.088432672667004 1.716332522039005 0.15951636320960072 -0.03750593521475154
lfemur -14.227994819502925 2.104929597791281 -21.65165543546687
ltibia 45.959971533935764
lfoot 2.24495939556086 -11.010996555019242
ltoes -4.8057052781800715
rfemur -18.648841132226575 4.702489218084088 26.556933424700954
rtibia 50.32367716045765
rfoot -5.300240636061816 -5.652689650603346
rtoes -0.15357223166357103
lowerback 12.868284658561002 0.676630287514553 0.9818444240772428
upperback -0.8113936535855193 1.40722060337845 1.0668835662251577
thorax -8.292391534066414 1.0504215371476073 0.8097751154874799
lowerneck -19.612017794757023 -3.767208674882015 -1.8885623660633468
upperneck 10.052963418736436 -5.0731633926107715 3.1478710396523226
head 6.315926239482167 -2.4171846459330237 0.7477418023053244
lclavicle 4.287488207731266e-15 5.75886165290891e-17
lhumerus -48.13615157158606 -12.04873125826004 96.74022057967036
lradius 110.06919111300523
lwrist 28.453163999106895
lhand -29.651325316102984 2.977888360085221
lfingers 7.125019999999998
lthumb -2.7108327246746553 32.82075128551134
rclavicle 4.28752700038245e-15 5.761646213958064e-17
rhumerus -42.06619192604521 15.088571497229278 -99.16032196969483
rradius 105.67080091000763
rwrist -9.634327996588866
rhand -20.368252175896625 36.423291418506956
rfingers 7.125019999999998
rthumb 6.056100073537704 6.418547221644509
198
root 0.8333081379597445 17.769158132941055 39.87131001432297 1.8150159094586125 0.3969333100950583 -0.0076024641254262
lfemur -15.997787658278146 1.4474453908775349 -22.914700427837115
ltibia 46.72696190944263
lfoot 1.5918878963410636 -10.598483353014231
ltoes -4.51287780216326
rfemur -19.550590967210276 4.629197608432734 26.39328518833502
rtibia 49.67762620869459
rfoot -5.0363532882759285 -5.458942763671801
rtoes 0.18593978351880536
lowerback 12.655453019824492 0.5131062133294341 0.5527658238677283
upperback -0.7963094799029233 1.3097126651622264 1.099324351410025
thorax -8.3908188296817 0.8974697732212656 0.7256216569223796
lowerneck -19.641622711448512 -3.7895386834755427 -1.9301129083143789
upperneck 10.080798669456325 -5.125391036771749 3.1023441311742115
head 6.346797347096652 -2.414647667654676 0.7478470847088707
lclavicle 4.287488207731266e-15 5.75886165290891e-17
lhumerus -49.50841857594185 -12.446056670406128 96.4250553179205
lradius 110.55707991774082
lwrist 28.61170896207839
lhand -29.638267545619204 2.9289926314237955
lfingers 7.125019999999998
lthumb -2.6620298781809844 32.77383089507742
rclavicle 4.28752700038245e-15 5.761646213958064e-17
rhumerus -42.34109633335176 14.971355084499194 -99.2242842947207
rradius 105.64154307594785
rwrist -9.556484745459617
rhand -20.388904386833907 36.453819378098174
rfingers 7.125019999999998
rthumb 6.077515825815699 6.426619025727578
199
root 0.8004115606196793 17.721128273465773 37.44026053234599 1.697361089126613 -0.039924196968224135 -0.28876161404449974
lfemur -14.901473733222579 1.6462175351240147 -22.60783323104759
ltibia 47.603076647948065
lfoot 1.5348976476238994 -9.646448411744547
ltoes -4.287792404242902
rfemur -21.181080522050397 4.29561237363935 26.310097837373476
rtibia 49.35510673613965
rfoot -4.451160181401241 -5.370706683894024
rtoes 0.23678673238510195
lowerback 12.540168859503954 0.41675541092293245 0.38841126689916927
upperback -0.7891955110809742 1.206828873422913 1.1026220163141887
thorax -8.34542051415699 0.8828040204974575 0.9018768163432327
lowerneck -19.602045045712792 -3.7473961229698776 -1.9109329375681554
upperneck 10.121613205363301 -5.158913653809404 3.0602378638834478
head 6.43228977086337 -2.3341090571521006 0.7749441041847882
lclavicle 4.287488207731266e-15 5.75886165290891e-17
lhumerus -48.06534349613448 -11.95952742904442 96.63344118465284
lradius 111.03750173030545
lwrist 28.686730290910877
lhand -29.65808954907473 2.9141928015465544
lfingers 7.125019999999998
lthumb -2.6431905596339167 32.72693019385422
rclavicle 4.28752700038245e-15 5.761646213958064e-17
rhumerus -42.43886857653797 14.900752026826487 -99.21149010102171
rradius 105.54041005909183
rwrist -9.51296062812348
rhand -20.431911011902585 36.4117070405701
rfingers 7.125019999999998
rthumb 6.016484511867212 6.318430703743247
200
root 0.8646925909994976 17.835875413332403 41.48295768791651 2.0168629637779727 0.7748908367136267 0.17348888184058864
lfemur -15.476322542727813 1.6411764240757551 -22.792892112707335
ltibia 48.18967315916478
lfoot 1.8724878743770939 -9.115781377622163
ltoes -4.246380169437234
rfemur -19.75251174542937 4.6787095211728795 26.419507488144134
rtibia 49.26789018057324
rfoot -4.008825046470465 -5.445346983611262
rtoes 0.6449524263752648
lowerback 12.465135715920997 0.35022434345152453 0.30868917566836274
upperback -0.7580929656856701 1.1716182782585571 1.1264808753420898
thorax -8.34052409117901 0.8439500468450577 0.973357887874315
lowerneck -19.700036811087486 -3.8250960495355706 -1.9528613130321968
upperneck 10.23807557355121 -5.165231311483733 3.0283687775024273
head 6.449109485232111 -2.2610800764368424 0.7971121197370314
lclavicle 4.287488207731266e-15 5.75886165290891e-17
lhumerus -48.148449860984634 -12.077615743446737 96.53212875681436
lradius 111.02310943051208
lwrist 28.52973737255644
lhand -29.602541462113876 2.8495516015003117
lfingers 7.125019999999998
lthumb -2.6259141292257526 32.748934612182275
rclavicle 4.28752700038245e-15 5.761646213958064e-17
rhumerus -42.70254349044184 14.829194586634113 -99.2578484009926
rradius 105.53793503642078
rwrist -9.589214045227658
rhand -20.4654227467029 36.38768113559757
rfingers 7.125019999999998
rthumb 6.037983529532889 6.281536124246053
201
root 0.8212895904419062 17.786272028526135 38.06010949815579 1.8013903570507073 0.17204394718240967 -0.1254344239695684
lfemur -13.875740530441082 1.8287436791273117 -22.681220526805337
ltibia 49.287379473613456
lfoot 3.2022042163006104 -8.940416060162248
ltoes -4.541348633560116
rfemur -20.905884265022127 4.416967192750118 26.24230259592524
rtibia 49.45457866405202
rfoot -3.729036488385044 -5.6458197130900265
rtoes 1.039837218584529
lowerback 12.527038734988862 0.37052534163742024 0.3957818288432907
upperback -0.697800200121215 1.2646658030163689 1.2163409406549328
thorax -8.343918354989786 0.7818289916469392 1.0076166800881692
lowerneck -19.645617029332417 -3.7947890804545006 -1.9149267271565216
upperneck 10.34539663411162 -5.081938947416103 3.042864709977116
head 6.420942390825146 -2.238812221026771 0.8038964848761718
lclavicle 4.287488207731266e-15 5.75886165290891e-17
lhumerus -48.407380660073976 -12.158062405010085 96.31776834699784
lradius 110.80715428567319
lwrist 28.57436101936808
lhand -29.555039925764127 2.7896361408658237
lfingers 7.125019999999998
lthumb -2.749108921440238 32.635985803380464
rclavicle 4.28752700038245e-15 5.761646213958064e-17
rhumerus -42.81414309717439 14.813835190463735 -99.27868240507146
rradius 105.54656689086052
rwrist -9.770444401690451
rhand -20.461395711464046 36.36896671832921
rfingers 7.125019999999998
rthumb 6.064062367797346 6.3137435680554805
